<?xml version="1.0" encoding="UTF-8" standalone="no"?>
<!DOCTYPE svg PUBLIC "-//W3C//DTD SVG 1.1//EN"
 "http://www.w3.org/Graphics/SVG/1.1/DTD/svg11.dtd">
<!-- Generated by graphviz version 2.46.1 (20210213.1702)
 -->
<!-- Title: snakemake_dag Pages: 1 -->
<svg width="409pt" height="260pt"
 viewBox="0.00 0.00 408.50 260.00" xmlns="http://www.w3.org/2000/svg" xmlns:xlink="http://www.w3.org/1999/xlink">
<g id="graph0" class="graph" transform="scale(1 1) rotate(0) translate(4 256)">
<title>snakemake_dag</title>
<polygon fill="white" stroke="transparent" points="-4,4 -4,-256 404.5,-256 404.5,4 -4,4"/>
<!-- 0 -->
<g id="node1" class="node">
<title>0</title>
<path fill="none" stroke="#56d8a9" stroke-width="2" stroke-dasharray="5,2" d="M203.5,-36C203.5,-36 156.5,-36 156.5,-36 150.5,-36 144.5,-30 144.5,-24 144.5,-24 144.5,-12 144.5,-12 144.5,-6 150.5,0 156.5,0 156.5,0 203.5,0 203.5,0 209.5,0 215.5,-6 215.5,-12 215.5,-12 215.5,-24 215.5,-24 215.5,-30 209.5,-36 203.5,-36"/>
<text text-anchor="middle" x="180" y="-15.5" font-family="sans" font-size="10.00">bcftools_call</text>
</g>
<!-- 1 -->
<g id="node2" class="node">
<title>1</title>
<path fill="none" stroke="#d8ac56" stroke-width="2" stroke-dasharray="5,2" d="M66,-180C66,-180 12,-180 12,-180 6,-180 0,-174 0,-168 0,-168 0,-156 0,-156 0,-150 6,-144 12,-144 12,-144 66,-144 66,-144 72,-144 78,-150 78,-156 78,-156 78,-168 78,-168 78,-174 72,-180 66,-180"/>
<text text-anchor="middle" x="39" y="-159.5" font-family="sans" font-size="10.00">samtools_sort</text>
</g>
<!-- 1&#45;&gt;0 -->
<g id="edge1" class="edge">
<title>1&#45;&gt;0</title>
<path fill="none" stroke="grey" stroke-width="2" d="M28.7,-143.94C18.57,-124.7 6.66,-93.33 22,-72 47.33,-36.79 97.17,-24.64 134.13,-20.62"/>
<polygon fill="grey" stroke="grey" stroke-width="2" points="134.55,-24.1 144.18,-19.69 133.9,-17.13 134.55,-24.1"/>
</g>
<!-- 7 -->
<g id="node8" class="node">
<title>7</title>
<path fill="none" stroke="#afd856" stroke-width="2" stroke-dasharray="5,2" d="M104.5,-108C104.5,-108 43.5,-108 43.5,-108 37.5,-108 31.5,-102 31.5,-96 31.5,-96 31.5,-84 31.5,-84 31.5,-78 37.5,-72 43.5,-72 43.5,-72 104.5,-72 104.5,-72 110.5,-72 116.5,-78 116.5,-84 116.5,-84 116.5,-96 116.5,-96 116.5,-102 110.5,-108 104.5,-108"/>
<text text-anchor="middle" x="74" y="-87.5" font-family="sans" font-size="10.00">samtools_index</text>
</g>
<!-- 1&#45;&gt;7 -->
<g id="edge10" class="edge">
<title>1&#45;&gt;7</title>
<path fill="none" stroke="grey" stroke-width="2" d="M47.65,-143.7C51.64,-135.73 56.45,-126.1 60.87,-117.26"/>
<polygon fill="grey" stroke="grey" stroke-width="2" points="64.11,-118.61 65.45,-108.1 57.85,-115.48 64.11,-118.61"/>
</g>
<!-- 2 -->
<g id="node3" class="node">
<title>2</title>
<path fill="none" stroke="#59d856" stroke-width="2" stroke-dasharray="5,2" d="M57,-252C57,-252 21,-252 21,-252 15,-252 9,-246 9,-240 9,-240 9,-228 9,-228 9,-222 15,-216 21,-216 21,-216 57,-216 57,-216 63,-216 69,-222 69,-228 69,-228 69,-240 69,-240 69,-246 63,-252 57,-252"/>
<text text-anchor="middle" x="39" y="-237" font-family="sans" font-size="10.00">bwa_map</text>
<text text-anchor="middle" x="39" y="-226" font-family="sans" font-size="10.00">sample: A</text>
</g>
<!-- 2&#45;&gt;1 -->
<g id="edge7" class="edge">
<title>2&#45;&gt;1</title>
<path fill="none" stroke="grey" stroke-width="2" d="M39,-215.7C39,-207.98 39,-198.71 39,-190.11"/>
<polygon fill="grey" stroke="grey" stroke-width="2" points="42.5,-190.1 39,-180.1 35.5,-190.1 42.5,-190.1"/>
</g>
<!-- 3 -->
<g id="node4" class="node">
<title>3</title>
<path fill="none" stroke="#d8ac56" stroke-width="2" stroke-dasharray="5,2" d="M225,-180C225,-180 171,-180 171,-180 165,-180 159,-174 159,-168 159,-168 159,-156 159,-156 159,-150 165,-144 171,-144 171,-144 225,-144 225,-144 231,-144 237,-150 237,-156 237,-156 237,-168 237,-168 237,-174 231,-180 225,-180"/>
<text text-anchor="middle" x="198" y="-159.5" font-family="sans" font-size="10.00">samtools_sort</text>
</g>
<!-- 3&#45;&gt;0 -->
<g id="edge2" class="edge">
<title>3&#45;&gt;0</title>
<path fill="none" stroke="grey" stroke-width="2" d="M183.67,-143.57C176.55,-133.76 168.69,-120.92 165,-108 159.14,-87.5 163.75,-63.65 169.35,-45.81"/>
<polygon fill="grey" stroke="grey" stroke-width="2" points="172.67,-46.91 172.6,-36.31 166.05,-44.64 172.67,-46.91"/>
</g>
<!-- 8 -->
<g id="node9" class="node">
<title>8</title>
<path fill="none" stroke="#afd856" stroke-width="2" stroke-dasharray="5,2" d="M246.5,-108C246.5,-108 185.5,-108 185.5,-108 179.5,-108 173.5,-102 173.5,-96 173.5,-96 173.5,-84 173.5,-84 173.5,-78 179.5,-72 185.5,-72 185.5,-72 246.5,-72 246.5,-72 252.5,-72 258.5,-78 258.5,-84 258.5,-84 258.5,-96 258.5,-96 258.5,-102 252.5,-108 246.5,-108"/>
<text text-anchor="middle" x="216" y="-87.5" font-family="sans" font-size="10.00">samtools_index</text>
</g>
<!-- 3&#45;&gt;8 -->
<g id="edge11" class="edge">
<title>3&#45;&gt;8</title>
<path fill="none" stroke="grey" stroke-width="2" d="M202.45,-143.7C204.45,-135.9 206.87,-126.51 209.1,-117.83"/>
<polygon fill="grey" stroke="grey" stroke-width="2" points="212.5,-118.66 211.6,-108.1 205.72,-116.92 212.5,-118.66"/>
</g>
<!-- 4 -->
<g id="node5" class="node">
<title>4</title>
<path fill="none" stroke="#59d856" stroke-width="2" stroke-dasharray="5,2" d="M216.5,-252C216.5,-252 179.5,-252 179.5,-252 173.5,-252 167.5,-246 167.5,-240 167.5,-240 167.5,-228 167.5,-228 167.5,-222 173.5,-216 179.5,-216 179.5,-216 216.5,-216 216.5,-216 222.5,-216 228.5,-222 228.5,-228 228.5,-228 228.5,-240 228.5,-240 228.5,-246 222.5,-252 216.5,-252"/>
<text text-anchor="middle" x="198" y="-237" font-family="sans" font-size="10.00">bwa_map</text>
<text text-anchor="middle" x="198" y="-226" font-family="sans" font-size="10.00">sample: B</text>
</g>
<!-- 4&#45;&gt;3 -->
<g id="edge8" class="edge">
<title>4&#45;&gt;3</title>
<path fill="none" stroke="grey" stroke-width="2" d="M198,-215.7C198,-207.98 198,-198.71 198,-190.11"/>
<polygon fill="grey" stroke="grey" stroke-width="2" points="201.5,-190.1 198,-180.1 194.5,-190.1 201.5,-190.1"/>
</g>
<!-- 5 -->
<g id="node6" class="node">
<title>5</title>
<path fill="none" stroke="#d8ac56" stroke-width="2" stroke-dasharray="5,2" d="M331,-180C331,-180 277,-180 277,-180 271,-180 265,-174 265,-168 265,-168 265,-156 265,-156 265,-150 271,-144 277,-144 277,-144 331,-144 331,-144 337,-144 343,-150 343,-156 343,-156 343,-168 343,-168 343,-174 337,-180 331,-180"/>
<text text-anchor="middle" x="304" y="-159.5" font-family="sans" font-size="10.00">samtools_sort</text>
</g>
<!-- 5&#45;&gt;0 -->
<g id="edge3" class="edge">
<title>5&#45;&gt;0</title>
<path fill="none" stroke="grey" stroke-width="2" d="M300.52,-143.89C295.88,-124.59 286.07,-93.17 268,-72 256.29,-58.28 240.09,-47.13 224.79,-38.66"/>
<polygon fill="grey" stroke="grey" stroke-width="2" points="226.4,-35.55 215.92,-33.98 223.13,-41.74 226.4,-35.55"/>
</g>
<!-- 9 -->
<g id="node10" class="node">
<title>9</title>
<path fill="none" stroke="#afd856" stroke-width="2" stroke-dasharray="5,2" d="M388.5,-108C388.5,-108 327.5,-108 327.5,-108 321.5,-108 315.5,-102 315.5,-96 315.5,-96 315.5,-84 315.5,-84 315.5,-78 321.5,-72 327.5,-72 327.5,-72 388.5,-72 388.5,-72 394.5,-72 400.5,-78 400.5,-84 400.5,-84 400.5,-96 400.5,-96 400.5,-102 394.5,-108 388.5,-108"/>
<text text-anchor="middle" x="358" y="-87.5" font-family="sans" font-size="10.00">samtools_index</text>
</g>
<!-- 5&#45;&gt;9 -->
<g id="edge12" class="edge">
<title>5&#45;&gt;9</title>
<path fill="none" stroke="grey" stroke-width="2" d="M317.35,-143.7C323.76,-135.39 331.56,-125.28 338.61,-116.14"/>
<polygon fill="grey" stroke="grey" stroke-width="2" points="341.47,-118.16 344.81,-108.1 335.93,-113.88 341.47,-118.16"/>
</g>
<!-- 6 -->
<g id="node7" class="node">
<title>6</title>
<path fill="none" stroke="#59d856" stroke-width="2" stroke-dasharray="5,2" d="M323,-252C323,-252 285,-252 285,-252 279,-252 273,-246 273,-240 273,-240 273,-228 273,-228 273,-222 279,-216 285,-216 285,-216 323,-216 323,-216 329,-216 335,-222 335,-228 335,-228 335,-240 335,-240 335,-246 329,-252 323,-252"/>
<text text-anchor="middle" x="304" y="-237" font-family="sans" font-size="10.00">bwa_map</text>
<text text-anchor="middle" x="304" y="-226" font-family="sans" font-size="10.00">sample: C</text>
</g>
<!-- 6&#45;&gt;5 -->
<g id="edge9" class="edge">
<title>6&#45;&gt;5</title>
<path fill="none" stroke="grey" stroke-width="2" d="M304,-215.7C304,-207.98 304,-198.71 304,-190.11"/>
<polygon fill="grey" stroke="grey" stroke-width="2" points="307.5,-190.1 304,-180.1 300.5,-190.1 307.5,-190.1"/>
</g>
<!-- 7&#45;&gt;0 -->
<g id="edge4" class="edge">
<title>7&#45;&gt;0</title>
<path fill="none" stroke="grey" stroke-width="2" d="M99.93,-71.88C113.66,-62.81 130.71,-51.55 145.54,-41.76"/>
<polygon fill="grey" stroke="grey" stroke-width="2" points="147.55,-44.62 153.97,-36.19 143.7,-38.78 147.55,-44.62"/>
</g>
<!-- 8&#45;&gt;0 -->
<g id="edge5" class="edge">
<title>8&#45;&gt;0</title>
<path fill="none" stroke="grey" stroke-width="2" d="M207.1,-71.7C203,-63.73 198.05,-54.1 193.51,-45.26"/>
<polygon fill="grey" stroke="grey" stroke-width="2" points="196.48,-43.4 188.8,-36.1 190.26,-46.6 196.48,-43.4"/>
</g>
<!-- 9&#45;&gt;0 -->
<g id="edge6" class="edge">
<title>9&#45;&gt;0</title>
<path fill="none" stroke="grey" stroke-width="2" d="M315.36,-72.23C288.13,-61.52 252.86,-47.65 225.15,-36.76"/>
<polygon fill="grey" stroke="grey" stroke-width="2" points="226.28,-33.44 215.69,-33.04 223.72,-39.95 226.28,-33.44"/>
</g>
</g>
</svg>
